<!DOCTYPE svg PUBLIC "-//W3C//DTD SVG 1.1//EN" "http://www.w3.org/Graphics/SVG/1.1/DTD/svg11.dtd">
<!-- Uploaded to: SVG Repo, www.svgrepo.com, Transformed by: SVG Repo Mixer Tools -->
<svg width="205px" height="205px" viewBox="-2.1 -2.1 25.20 25.20" version="1.1" xmlns="http://www.w3.org/2000/svg" xmlns:xlink="http://www.w3.org/1999/xlink" fill="#ffffff" transform="rotate(0)">
<g id="SVGRepo_bgCarrier" stroke-width="0" transform="translate(0,0), scale(1)">
<path transform="translate(-2.1, -2.1), scale(0.7875)" d="M16,30.287309128791094C17.97639594814903,29.21748797737994,17.92200212865381,25.84221189817275,19.978404811060006,24.93564350711823C22.046364444953426,24.02398021563156,24.55893275732809,26.44325062810863,26.65218946297501,25.591274473089534C28.5831743833586,24.805344537487187,30.497762740971705,22.76892273877052,30.42064092271901,20.685550268093678C30.331999213438124,18.29097891262528,27.469042019681467,16.989129551184398,26.257233722530266,14.92192129365215C25.533750997961548,13.687741377632172,24.92310899340175,12.38074118111413,24.72201719749001,10.964341023152599C24.39274860045322,8.645121132852477,26.20537399549564,5.815572730970531,24.70855231189383,4.0137060444318955C23.396786141228375,2.4346082872676478,20.68213340497833,3.646278916275911,18.629326818738377,3.62998988090426C16.8754063108603,3.616072508764384,15.185031964686596,3.8371974548109646,13.433217162249518,3.924236177026515C11.40635639087007,4.024940527397495,8.93384862445659,2.838474556243877,7.417392061757315,4.187053603310391C5.836378765666935,5.593042707571906,6.566119768486882,8.262195233295945,6.210051022022977,10.347770322212257C5.949140566139187,11.875981805620816,5.90391592396185,13.387919215425171,5.587423294547678,14.905594088228229C5.2365275008637395,16.588242211921163,4.152772934867396,18.106047605804214,4.234113793660049,19.822968172074916C4.320887648228957,21.654566924968808,5.2593725805806955,23.299080930598894,6.063153492032605,24.9471767833407C7.04140035879588,26.953002725584025,7.529322882087482,29.55382407943821,9.495099229695231,30.61024634070234C11.428542380347231,31.6492925107934,14.069698180932344,31.332179574199582,16,30.287309128791094" fill="#f3c385" strokewidth="0"/>
</g>
<g id="SVGRepo_tracerCarrier" stroke-linecap="round" stroke-linejoin="round" stroke="#CCCCCC" stroke-width="0.5880000000000001"/>
<g id="SVGRepo_iconCarrier"> <title>gallery_grid_view [#1405]</title> <desc>Created with Sketch.</desc> <defs> </defs> <g id="Page-1" stroke-width="0.00021000000000000004" fill="none" fill-rule="evenodd"> <g id="Dribbble-Light-Preview" transform="translate(-259.000000, -680.000000)" fill="#ffffff"> <g id="icons" transform="translate(56.000000, 160.000000)"> <path d="M209.3,538 L206.15,538 C205.5704,538 205.1,537.552 205.1,537 C205.1,536.448 205.5704,536 206.15,536 L209.3,536 C209.8796,536 210.35,536.448 210.35,537 C210.35,537.552 209.8796,538 209.3,538 L209.3,538 Z M210.35,534 L205.1,534 C203.93975,534 203,534.895 203,536 L203,538 C203,539.105 203.93975,540 205.1,540 L210.35,540 C211.51025,540 212.45,539.105 212.45,538 L212.45,536 C212.45,534.895 211.51025,534 210.35,534 L210.35,534 Z M220.85,524 L217.7,524 C217.1204,524 216.65,523.552 216.65,523 C216.65,522.448 217.1204,522 217.7,522 L220.85,522 C221.4296,522 221.9,522.448 221.9,523 C221.9,523.552 221.4296,524 220.85,524 L220.85,524 Z M221.9,520 L216.65,520 C215.48975,520 214.55,520.895 214.55,522 L214.55,524 C214.55,525.105 215.48975,526 216.65,526 L221.9,526 C223.06025,526 224,525.105 224,524 L224,522 C224,520.895 223.06025,520 221.9,520 L221.9,520 Z M221.9,537 C221.9,537.552 221.4296,538 220.85,538 L217.7,538 C217.1204,538 216.65,537.552 216.65,537 L216.65,531 C216.65,530.448 217.1204,530 217.7,530 L220.85,530 C221.4296,530 221.9,530.448 221.9,531 L221.9,537 Z M221.9,528 L216.65,528 C215.48975,528 214.55,528.895 214.55,530 L214.55,538 C214.55,539.105 215.48975,540 216.65,540 L221.9,540 C223.06025,540 224,539.105 224,538 L224,530 C224,528.895 223.06025,528 221.9,528 L221.9,528 Z M210.35,529 C210.35,529.552 209.8796,530 209.3,530 L206.15,530 C205.5704,530 205.1,529.552 205.1,529 L205.1,523 C205.1,522.448 205.5704,522 206.15,522 L209.3,522 C209.8796,522 210.35,522.448 210.35,523 L210.35,529 Z M210.35,520 L205.1,520 C203.93975,520 203,520.895 203,522 L203,530 C203,531.105 203.93975,532 205.1,532 L210.35,532 C211.51025,532 212.45,531.105 212.45,530 L212.45,522 C212.45,520.895 211.51025,520 210.35,520 L210.35,520 Z" id="gallery_grid_view-[#1405]"> </path> </g> </g> </g> </g>
</svg>