<svg xmlns="http://www.w3.org/2000/svg" version="1.1" xmlns:xlink="http://www.w3.org/1999/xlink" xmlns:svgjs="http://svgjs.dev/svgjs" width="1000" height="371" viewBox="0 0 1000 371"><g transform="matrix(1,0,0,1,-0.6060606060606233,-0.25027971778499136)"><svg viewBox="0 0 396 147" data-background-color="#ffffff" preserveAspectRatio="xMidYMid meet" height="371" width="1000" xmlns="http://www.w3.org/2000/svg" xmlns:xlink="http://www.w3.org/1999/xlink"><g id="tight-bounds" transform="matrix(1,0,0,1,0.2400000000000091,0.09916743534877526)"><svg viewBox="0 0 395.52 146.80166512930245" height="146.80166512930245" width="395.52"><g><svg viewBox="0 0 397.4975999999999 147.53567345494895" height="146.80166512930245" width="395.52"><g><rect width="397.4975999999999" height="4.518822818064387" x="0" y="81.07912038711589" fill="#89939e" opacity="1" stroke-width="0" stroke="transparent" fill-opacity="1" class="rect-o-0" data-fill-palette-color="secondary" rx="1%" id="o-0" data-palette-color="#89939e"></rect></g><g transform="matrix(1,0,0,1,0.9887999999999693,97.42732231006087)"><svg viewBox="0 0 395.52 50.10835114488806" height="50.10835114488806" width="395.52"><g id="textblocktransform"><svg viewBox="0 0 395.52 50.10835114488806" height="50.10835114488806" width="395.52" id="textblock"><g><svg viewBox="0 0 395.52 50.10835114488806" height="50.10835114488806" width="395.52"><g transform="matrix(1,0,0,1,0,0)"><svg width="395.52" viewBox="2.4941859245300293 -36.25 299.1358337402344 37.900001525878906" height="50.10835114488806" data-palette-color="#89939e"><path d="M18.3-13.65Q17.35-13.3 16.75-13.3L16.75-13.3Q15.65-13.3 14.68-14.05 13.7-14.8 13.05-16.1L13.05-16.1 14.45-17Q16.85-18.6 18-19.45L18-19.45Q21.85-22.45 24.7-25.05L24.7-25.05Q25.25-25.5 26-26.9L26-26.9 26.7-28.1 25.8-28.55Q25.65-28.6 25.13-28.83 24.6-29.05 24.25-29.1L24.25-29.1Q19.9-29.55 14.5-29.9L14.5-29.9Q12.8-30.05 12.3-28.05L12.3-28.05 8.1-8.6Q7.75-7.1 7.55-5.98 7.35-4.85 7.2-4.1L7.2-4.1 6.75-1.85Q6.55-1.05 6.1-0.58 5.65-0.1 4.8-0.05L4.8-0.05 4.15 0Q3.2 0 2.83-0.45 2.45-0.9 2.5-2.05L2.5-2.05 2.6-4.05Q2.9-9.95 3.35-12.9L3.35-12.9Q3.65-15.05 4.23-17.65 4.8-20.25 5-21.05L5-21.05Q5.7-23.95 6-25.45L6-25.45 3.4-25.9Q2.8-27.2 2.8-28.15L2.8-28.15Q2.8-29.75 4.3-31.4L4.3-31.4Q5.35-32.6 6.8-33.35 8.25-34.1 9.8-34.35L9.8-34.35Q12.05-34.6 13.8-34.6L13.8-34.6Q20.65-34.6 27.7-31.7L27.7-31.7Q28.55-31.35 29.4-30.63 30.25-29.9 30.5-29.7L30.5-29.7Q32.45-28.05 32.45-26.25L32.45-26.25Q32.45-25.05 31.7-23.6L31.7-23.6Q31.3-22.75 30.35-21.65L30.35-21.65Q25.7-16.55 18.3-13.65L18.3-13.65ZM52.3-18.3Q51.1-18.2 50.55-18.2L50.55-18.2Q46.85-17.95 44.85-17.65L44.85-17.65Q43.75-17.45 42.15-14.95L42.15-14.95Q40.8-12.85 40.3-8.3L40.3-8.3 39.75-6.5Q39.5-5.6 39-4.95L39-4.95Q38.7-4.6 38.22-4.38 37.75-4.15 37.25-4.15L37.25-4.15Q37.5-4.15 37.05-4.7L37.05-4.7Q36.05-6.05 35.57-6.88 35.1-7.7 35.1-8.75L35.1-8.75Q35.1-9.2 35.25-9.8L35.25-9.8Q35.5-10.55 35.55-11.3L35.55-11.3Q35.65-11.6 35.75-12.18 35.85-12.75 36-13.15L36-13.15Q36.15-13.6 36.15-14L36.15-14Q36.15-15.1 35-16.1L35-16.1Q33.3-17.55 33.3-18.75L33.3-18.75Q33.3-20.15 35.5-21.35L35.5-21.35Q35.7-21.45 36.07-21.7 36.45-21.95 36.75-22L36.75-22Q37.8-22.25 38.27-22.95 38.75-23.65 39.1-24.9L39.1-24.9Q40.05-28.2 41.2-32L41.2-32 41.75-33.8Q41.85-34.15 42.3-35.1L42.3-35.1Q44.5-35.15 45.42-33.9 46.35-32.65 46.35-30.65L46.35-30.65Q46.35-30.35 46.25-29.75L46.25-29.75 45.8-27.75 45.5-26.65 45-24 47.65-23.8 54-23.25 55.7-28.5 56.1-30.2Q57.55-32.1 58.65-31.1L58.65-31.1Q59.7-30.15 60.47-28.98 61.25-27.8 61.25-26.3L61.25-26.3Q61.25-24.85 60.4-22.6L60.4-22.6Q60.8-22.35 61.35-22.18 61.9-22 62.1-21.95L62.1-21.95Q63.65-21.5 64.5-20.9 65.35-20.3 65.55-18.75L65.55-18.75Q64.95-17.8 63.95-17.5 62.95-17.2 61.6-17.35L61.6-17.35Q61.1-17.4 60.3-17.4L60.3-17.4Q59.2-17.4 58.85-16.95 58.5-16.5 58-14.85L58-14.85 57.4-12.9Q56.2-9 55.67-6.65 55.15-4.3 54.95-1.75L54.95-1.75Q54.95-1.55 54.92-0.93 54.9-0.3 54.6 0.08 54.3 0.45 53.65 0.45L53.65 0.45Q52 0.6 51.65-1.3L51.65-1.3Q50.45-3.95 50.45-6.4L50.45-6.4Q50.45-7.45 50.55-8L50.55-8Q51.1-11.2 52-16.15L52-16.15 52.3-18.3ZM72.25-25.15Q74.2-28.4 78.3-30.85L78.3-30.85Q81.55-32.8 85.84-32.8L85.84-32.8Q88.9-32.8 91.75-31.78 94.59-30.75 96.45-28.9L96.45-28.9Q97.09-28.25 97.84-27.65L97.84-27.65Q99-26.65 99.2-26.4L99.2-26.4Q101.7-23.75 101.7-20.55L101.7-20.55Q101.7-18.05 100.09-15.45L100.09-15.45Q98-12 95.75-9.4 93.5-6.8 90.7-4.95L90.7-4.95Q85.95-1.8 81.59-1.8L81.59-1.8Q80.3-1.8 79-2.1L79-2.1Q74.65-3.05 71.95-6.18 69.25-9.3 69.25-13.3L69.25-13.3Q69.25-16.35 70.95-19.4L70.95-19.4Q71.05-19.65 71.37-19.9 71.7-20.15 71.9-20.3L71.9-20.3 73.05-19.75 74.15-19.2Q75.7-18.35 76.17-17.8 76.65-17.25 76.65-16.25L76.65-16.25Q76.65-15.55 76.5-14.35L76.5-14.35Q76.45-13.9 76.45-13.05L76.45-13.05Q76.45-11.2 76.9-8.6L76.9-8.6Q77-7.85 77.52-7.45 78.05-7.05 78.84-7.05L78.84-7.05Q79.25-7.05 79.5-7.1L79.5-7.1Q81.84-7.55 83.52-8.15 85.2-8.75 86.55-9.95L86.55-9.95Q89.05-12.1 90.9-14.1 92.75-16.1 94.15-18.4L94.15-18.4Q95.09-20 95.09-21.5L95.09-21.5Q95.09-22.75 94.55-23.95 94-25.15 92.95-26.65L92.95-26.65Q91.2-29.05 88.4-29.05L88.4-29.05Q87.4-29.05 86.34-28.75L86.34-28.75Q86-28.65 83.15-27.7L83.15-27.7Q82.84-27.6 82.52-27.5 82.2-27.4 81.84-27.3L81.84-27.3 76.15-25.65Q75.05-25.3 72.75-24.7L72.75-24.7 72.25-25.15ZM118.44-17.25Q118.59-19.3 118.74-21.03 118.89-22.75 119.04-24.15L119.04-24.15 119.44-28.15Q115.54-27.55 111.14-25.85L111.14-25.85Q110.09-25.45 109.19-25.45L109.19-25.45Q107.84-25.45 106.72-26.2 105.59-26.95 104.94-28.4L104.94-28.4Q105.24-29.5 106.07-30.05 106.89-30.6 108.34-31.15L108.34-31.15Q115.29-33.7 124.24-33.65L124.24-33.65Q128.49-33.65 133.12-33.3 137.74-32.95 138.54-32.9L138.54-32.9 142.04-32.65Q142.24-32.65 142.72-32.65 143.19-32.65 143.49-32.43 143.79-32.2 143.79-31.7L143.79-31.7Q143.79-30.45 141.99-30.25L141.99-30.25Q137.49-29.75 135.59-29.55L135.59-29.55Q133.64-29.45 132.64-29.35L132.64-29.35Q128.74-29.1 126.79-28.95L126.79-28.95Q125.59-28.85 125.14-28.68 124.69-28.5 124.57-28.08 124.44-27.65 124.34-26.3L124.34-26.3Q124.09-23.15 123.29-15.45L123.29-15.45Q122.49-8.5 122.29-5.85L122.29-5.85Q122.24-4.4 121.64-2.35L121.64-2.35Q121.24-1.05 120.99-0.63 120.74-0.2 120.27-0.1 119.79 0 118.49-0.05L118.49-0.05Q117.54-0.05 117.02-0.48 116.49-0.9 116.49-1.65L116.49-1.65Q116.49-1.8 116.59-2.3L116.59-2.3Q117.69-6.65 118.44-17.25L118.44-17.25ZM146.74-25.15Q148.69-28.4 152.79-30.85L152.79-30.85Q156.04-32.8 160.34-32.8L160.34-32.8Q163.39-32.8 166.24-31.78 169.09-30.75 170.94-28.9L170.94-28.9Q171.59-28.25 172.34-27.65L172.34-27.65Q173.49-26.65 173.69-26.4L173.69-26.4Q176.19-23.75 176.19-20.55L176.19-20.55Q176.19-18.05 174.59-15.45L174.59-15.45Q172.49-12 170.24-9.4 167.99-6.8 165.19-4.95L165.19-4.95Q160.44-1.8 156.09-1.8L156.09-1.8Q154.79-1.8 153.49-2.1L153.49-2.1Q149.14-3.05 146.44-6.18 143.74-9.3 143.74-13.3L143.74-13.3Q143.74-16.35 145.44-19.4L145.44-19.4Q145.54-19.65 145.87-19.9 146.19-20.15 146.39-20.3L146.39-20.3 147.54-19.75 148.64-19.2Q150.19-18.35 150.67-17.8 151.14-17.25 151.14-16.25L151.14-16.25Q151.14-15.55 150.99-14.35L150.99-14.35Q150.94-13.9 150.94-13.05L150.94-13.05Q150.94-11.2 151.39-8.6L151.39-8.6Q151.49-7.85 152.02-7.45 152.54-7.05 153.34-7.05L153.34-7.05Q153.74-7.05 153.99-7.1L153.99-7.1Q156.34-7.55 158.02-8.15 159.69-8.75 161.04-9.95L161.04-9.95Q163.54-12.1 165.39-14.1 167.24-16.1 168.64-18.4L168.64-18.4Q169.59-20 169.59-21.5L169.59-21.5Q169.59-22.75 169.04-23.95 168.49-25.15 167.44-26.65L167.44-26.65Q165.69-29.05 162.89-29.05L162.89-29.05Q161.89-29.05 160.84-28.75L160.84-28.75Q160.49-28.65 157.64-27.7L157.64-27.7Q157.34-27.6 157.02-27.5 156.69-27.4 156.34-27.3L156.34-27.3 150.64-25.65Q149.54-25.3 147.24-24.7L147.24-24.7 146.74-25.15ZM190.49-22.25Q189.04-19.55 188.61-18 188.19-16.45 187.89-14.3L187.89-14.3Q188.39-14.3 189.54-14.33 190.69-14.35 191.04-14.4L191.04-14.4 193.89-15Q194.94-15.25 195.74-15.43 196.54-15.6 198.69-15.95L198.69-15.95Q199.64-16.1 200.74-16.15 201.84-16.2 202.19-16.2L202.19-16.2Q203.39-16.2 203.99-16.25L203.99-16.25Q204.84-16.25 205.19-15.95L205.19-15.95Q206.64-14.7 206.64-13.8L206.64-13.8Q206.64-13.2 206.19-12.95 205.74-12.7 204.79-12.4L204.79-12.4 200.14-11.4 190.44-8.75Q190.19-8.7 189.96-8.58 189.74-8.45 189.49-8.4L189.49-8.4Q187.89-8.05 187.36-7.83 186.84-7.6 186.71-7.05 186.59-6.5 186.59-4.9L186.59-4.9 186.59-2.9Q186.59-1.55 186.49-0.85L186.49-0.85Q186.19 1.65 184.64 1.65L184.64 1.65Q183.79 1.65 182.69 1L182.69 1Q181.44 0.25 180.81-0.68 180.19-1.6 180.19-2.85L180.19-2.85Q180.19-3.3 180.24-3.55L180.24-3.55Q180.64-7.05 180.79-8.75L180.79-8.75Q180.94-10.2 181.19-12.43 181.44-14.65 181.84-17.6L181.84-17.6Q182.49-22.25 185.11-25.8 187.74-29.35 192.04-32.3L192.04-32.3Q196.29-35.25 200.54-36.05L200.54-36.05Q201.39-36.25 202.49-36.25L202.49-36.25Q205.79-36.25 208.14-33.75L208.14-33.75Q209.09-32.8 209.09-32.1L209.09-32.1Q209.09-31.8 208.84-31.3L208.84-31.3Q208.19-30.25 207.04-30.25L207.04-30.25Q206.64-30.25 206.19-30.4L206.19-30.4Q205.94-30.5 205.56-30.6 205.19-30.7 204.99-30.8L204.99-30.8Q204.14-31.4 203.04-31.4L203.04-31.4Q201.54-31.85 199.69-30.85 197.84-29.85 194.64-27.35L194.64-27.35Q192.94-26.1 191.69-24.5L191.69-24.5 190.49-22.25ZM219.19-2.6Q220.53-2.85 224.78-3.75L224.78-3.75 228.63-4.55Q229.28-3.9 229.74-3.4 230.19-2.9 230.19-2.55L230.19-2.55Q230.19-2.15 229.78-1.75 229.38-1.35 228.19-0.45L228.19-0.45Q228.03-0.35 227.86-0.1 227.69 0.15 227.49 0.2L227.49 0.2 226.13 0.55Q224.44 1.05 223.11 1.33 221.78 1.6 220.44 1.6L220.44 1.6Q215.63 1.6 212.59-1.25L212.59-1.25Q211.44-2.3 210.81-3.38 210.19-4.45 210.19-5.7L210.19-5.7Q210.19-6.25 210.24-6.5L210.24-6.5Q211.03-11.45 212.03-14.9L212.03-14.9Q213.09-18.7 215.84-27.8L215.84-27.8Q216.44-29.95 217.74-34.25L217.74-34.25Q218.09-35.4 218.71-35.85 219.34-36.3 220.53-36.2L220.53-36.2Q220.78-36.2 221.01-36.15 221.24-36.1 221.49-36.1L221.49-36.1Q224.59-35.85 224.59-33.1L224.59-33.1Q224.59-32.4 224.38-31.65L224.38-31.65Q223.99-30.05 222.88-27.35L222.88-27.35Q218.84-17.05 216.63-7.5L216.63-7.5Q216.34-6.3 216.34-5L216.34-5Q216.34-2.55 218.49-2.55L218.49-2.55Q218.94-2.55 219.19-2.6L219.19-2.6ZM264.98-14Q264.78-12.75 264.18-7.5L264.18-7.5Q263.83-4.5 263.78-4.4L263.78-4.4 259.38-5.1 260.28-15.9 259.73-15.5Q259.28-15.1 258.51-14.28 257.73-13.45 257.13-12.8L257.13-12.8Q255.18-10.1 254.28-9.15L254.28-9.15Q252.08-6.85 250.26-5.33 248.43-3.8 245.93-2.55L245.93-2.55Q244.93-2.05 243.48-2.05L243.48-2.05Q242.23-2.05 241.08-2.5 239.93-2.95 239.13-3.85L239.13-3.85Q235.18-8.15 235.18-14.25L235.18-14.25Q235.18-16 235.48-17.85L235.48-17.85Q235.88-20.25 236.48-22.58 237.08-24.9 238.13-28.6L238.13-28.6Q238.48-29.65 239.08-31.75L239.08-31.75Q239.33-32.75 239.83-32.9L239.83-32.9Q240.03-33 240.18-33L240.18-33Q240.73-33 241.48-32.55L241.48-32.55Q243.13-31.6 243.86-30.7 244.58-29.8 244.58-28.65L244.58-28.65Q244.58-27.3 243.53-25.1L243.53-25.1Q240.43-18.5 240.43-12.95L240.43-12.95Q240.43-11.5 240.53-10.8L240.53-10.8Q240.63-9.65 241.68-8.75 242.73-7.85 243.98-7.85L243.98-7.85Q245.33-7.85 246.33-8.85L246.33-8.85Q251.53-14.05 254.88-19.4 258.23-24.75 260.13-31.15L260.13-31.15Q260.33-31.9 260.58-32.6L260.58-32.6 260.68-32.7 260.68-32.7Q263.63-32.4 265.33-30.43 267.03-28.45 266.83-25.55L266.83-25.55Q265.48-17.55 264.98-14L264.98-14ZM272.58-1.85Q272.28-1.75 271.88-1.75 271.48-1.75 271.28-1.75L271.28-1.75 270.38-4.4 279.93-12.65Q278.43-15.7 275.83-21.2L275.83-21.2Q275.03-22.95 275.03-24.8L275.03-24.8Q275.03-26.1 275.58-28.3L275.58-28.3Q277.48-28.15 279.03-26.73 280.58-25.3 281.18-23.15L281.18-23.15 281.58-21.65Q281.98-19.95 282.23-19.15L282.23-19.15Q282.43-18.7 282.98-17.75L282.98-17.75 283.63-16.55 285.18-18.2Q289.33-22.7 291.81-25.68 294.28-28.65 296.28-32.05L296.28-32.05Q297.53-32.2 298.5-31.65 299.48-31.1 300.68-30L300.68-30Q301.63-29.1 301.63-27.65L301.63-27.65Q301.63-26.9 301.33-26.13 301.03-25.35 300.48-24.75L300.48-24.75 288.83-11.95Q288.73-11.8 288.63-11.55 288.53-11.3 288.33-10.95L288.33-10.95 289.78-10.05Q292.08-8.6 292.68-8.25L292.68-8.25 298.83-4.7Q299.63-4.2 299.88-3.6L299.88-3.6Q300.03-3.3 300.03-3.05L300.03-3.05Q300.03-2.5 299.48-2.23 298.93-1.95 298.08-2.05L298.08-2.05Q295.13-2.45 292.38-3.7 289.63-4.95 286.83-6.9L286.83-6.9Q286.13-7.35 285.63-7.65 285.13-7.95 284.73-7.95L284.73-7.95Q284.43-7.95 283.93-7.65 283.43-7.35 282.78-6.9L282.78-6.9Q278.08-3.5 272.58-1.85L272.58-1.85Z" opacity="1" transform="matrix(1,0,0,1,0,0)" fill="#89939e" class="undefined-text-0" data-fill-palette-color="primary" id="text-0"></path></svg></g></svg></g></svg></g></svg></g><g transform="matrix(1,0,0,1,149.4894776772834,0)"><svg viewBox="0 0 98.51864464543314 69.2497412822353" height="69.2497412822353" width="98.51864464543314"><g><svg xmlns="http://www.w3.org/2000/svg" xmlns:xlink="http://www.w3.org/1999/xlink" version="1.1" x="8" y="0" viewBox="7.365999221801758 13.906997680664062 85.12500762939453 71.43700408935547" enable-background="new 0 0 100 100" xml:space="preserve" height="69.2497412822353" width="82.51864464543314" class="icon-icon-0" data-fill-palette-color="accent" id="icon-0"><path d="M83.169 85.344H16.688c-5.14 0-9.322-4.05-9.322-9.028V34.911c0-4.978 4.182-9.028 9.322-9.028h16.721l2.452-8.324c0.125-2.035 1.821-3.652 3.888-3.652h20.359c2.068 0 3.766 1.619 3.89 3.656l2.414 8.32h16.757c5.141 0 9.322 4.05 9.322 9.028v41.404C92.491 81.294 88.31 85.344 83.169 85.344zM16.688 28.883c-3.486 0-6.322 2.704-6.322 6.028v41.404c0 3.324 2.836 6.028 6.322 6.028h66.481c3.486 0 6.322-2.704 6.322-6.028V34.911c0-3.324-2.836-6.028-6.322-6.028H16.688zM36.536 25.883h26.752l-2.283-7.869V17.8c0-0.493-0.402-0.894-0.896-0.894H39.749c-0.494 0-0.896 0.401-0.896 0.894v0.216L36.536 25.883zM57.628 80.211c-13.563 0-24.598-11.034-24.598-24.598 0-13.563 11.035-24.598 24.598-24.598 13.563 0 24.598 11.035 24.598 24.598C82.226 69.177 71.191 80.211 57.628 80.211zM57.628 34.016c-11.909 0-21.598 9.688-21.598 21.598s9.688 21.598 21.598 21.598 21.598-9.688 21.598-21.598S69.537 34.016 57.628 34.016zM30.897 78.711h-3V32.516h3V78.711zM57.628 75.592c-11.016 0-19.979-8.962-19.979-19.979 0-11.016 8.962-19.979 19.979-19.979 11.017 0 19.979 8.962 19.979 19.979C77.606 66.63 68.645 75.592 57.628 75.592zM57.628 38.635c-9.362 0-16.979 7.617-16.979 16.979 0 9.362 7.617 16.979 16.979 16.979 9.362 0 16.979-7.616 16.979-16.979C74.606 46.251 66.99 38.635 57.628 38.635z" fill="#89939e" data-fill-palette-color="accent"></path></svg></g></svg></g><g><rect width="72.95635767728342" height="4.518822818064387" y="63.73091846417091" x="248.00812232271653" fill="#89939e" data-fill-palette-color="secondary"></rect><rect width="72.95635767728342" height="4.518822818064387" y="63.73091846417091" x="76.53311999999997" fill="#89939e" data-fill-palette-color="secondary"></rect></g></svg></g><defs></defs></svg><rect width="395.52" height="146.80166512930245" fill="none" stroke="none" visibility="hidden"></rect></g></svg></g></svg>