<svg id="ekh4yHfPOiB1" xmlns="http://www.w3.org/2000/svg" xmlns:xlink="http://www.w3.org/1999/xlink" viewBox="0 0 512 512" shape-rendering="geometricPrecision" text-rendering="geometricPrecision"><g transform="matrix(.1 0 0-.1-.028621 511.926904)"><path d="M990,5109c-339-57-635-301-744-615-59-168-56-69-56-1934c0-1523,2-1719,16-1788c46-223,154-406,324-549C609,156,762,72,850,45C995,2,1032,0,1785,0c666,0,723,1,754,18c97,49,106,181,18,246-28,21-40,21-775,26-830,7-794,4-939,76-159,80-279,222-336,399l-22,70v1725v1725l22,70c57,176,181,324,338,400c145,71,108,68,945,75c706,5,758,6,783,23c94,61,86,200-13,249-32,17-89,18-775,17-407-1-765-5-795-10Z"/></g></svg>
