<svg id="emTDjO2zUf61" xmlns="http://www.w3.org/2000/svg" xmlns:xlink="http://www.w3.org/1999/xlink" viewBox="0 0 512 512" shape-rendering="geometricPrecision" text-rendering="geometricPrecision"><g transform="matrix(.1 0 0-.1-.028621 511.926904)"><path d="M3790,3622c-82-41-106-144-51-218c16-21,176-185,355-364l326-325-1502-5c-1457-5-1504-6-1535-24-98-60-94-201,7-253l44-23h1501h1500l-359-359-359-359-4-54c-3-41,1-60,16-86c40-62,110-87,178-62c32,12,986,960,1009,1002c24,46,18,110-15,154-16,21-238,247-492,501-523,521-525,523-619,475Z" transform="translate(186.0642 0)"/></g></svg>
