<svg id="eVK8SXJMNmh1" xmlns="http://www.w3.org/2000/svg" xmlns:xlink="http://www.w3.org/1999/xlink" viewBox="0 0 96 96" shape-rendering="geometricPrecision" text-rendering="geometricPrecision"><path d="M31.083174,81.932755c4.449709-2.16401,8.754408-4.757836,13.404871-6.326806c2.682914-.905159,6.188198-.911209,8.855129.019585c4.48798,1.566368,8.593693,4.219666,12.878078,6.380302c3.482308,1.75615,5.902985,1.452805,6.90828-3.018928.299667-1.332985,2.10263-2.328018,3.216812-3.47789.880516,1.545494,2.510208,3.092964,2.506134,4.636124-.014282,5.411445-4.267166,8.622856-11.419174,8.914619-3.544834-1.292908-6.678169-2.639168-10.193596-4.383316-5.14275-4.460243-9.916145-5.13562-15.357868-1.315903-3.318924,2.329651-7.233498,3.810715-10.880533,5.672928-7.054089,1.816193-13.802838-3.844322-12.841942-10.791931.656408-4.746071,1.601053-9.469879,1.918182-14.236809.131208-1.97229-.519581-4.440403-1.7213-5.971439-3.163159-4.029991-7.202425-7.395184-10.197562-11.528862C3.600488,40.21352,6.54034,32.857933,14.015722,31.03863c3.040007-.739855,6.174233-1.431881,9.26977-1.450507c1.392818-.008381,2.795891,1.687319,4.194309,2.609806-.944349,1.276009-1.630564,3.065834-2.896459,3.701817-1.695181.851658-3.938164.544491-5.763329,1.224796-1.887863.703682-3.557239,1.993538-5.322189,3.026985.863301,1.473519,1.647289,3.002289,2.620521,4.399224.557719.800522,1.422865,1.386867,2.428894,2.232834c1.584776,1.999473,2.973061,3.783336,4.176392,5.684284c1.816206,2.869133,3.503338,5.819969,5.217073,9.5037-.766845,5.317013-1.476135,9.871418-2.25192,14.414455-.848851,4.970932.31052,6.1875,5.39439,5.546731Z" fill="#f5f5f8"/><path d="M91.930847,42.681656c-3.201118,3.943359-6.276161,7.57761-9.585144,10.984638-3.231789,3.327541-7.140373,6.136215-5.27832,11.832409.26506.810829-1.339279,2.232773-2.078415,3.371887-1.198395-.894089-3.157234-1.583336-3.462875-2.717926-1.287812-4.780563-1.522568-9.386116,2.928993-13.194431c3.647072-3.120068,6.776458-6.845249,10.190864-10.952717-1.26239-2.062786-2.372596-4.337727-3.939727-4.715069-3.733529-.898983-7.682908-.901516-11.545098-1.266159-.652054-.391342-1.280014-1.071163-1.960007-1.127949-5.017803-.419056-7.968311-3.255361-9.745254-7.766416-.711872-1.8072-1.849018-3.446879-3.128647-5.292238-1.704388-2.427697-3.072712-4.725966-5.292015-8.453557-2.556129,4.151141-4.341988,6.809708-5.871799,9.608241-1.351132,2.471653-2.09842,5.334724-3.742756,7.558887-.822201,1.112118-3.052048,1.183556-4.645218,1.725691-.47831-1.584663-1.779049-3.506046-1.292065-4.695501c2.069798-5.05546,4.284401-10.134266,7.167454-14.754422c4.143509-6.640066,12.417026-6.454541,16.84647.117913c1.662712,2.467153,3.523899,5.086002,4.168361,7.894159c1.317028,5.738791,5.0085,7.699183,10.272622,8.137335c2.968528.247082,5.918884.710821,8.878166,1.070984c7.335609.89279,10.722976,4.609117,11.11441,12.634241Z" fill="#f4f4f8"/></svg>
