<svg id="exkmZEjr18N1" xmlns="http://www.w3.org/2000/svg" xmlns:xlink="http://www.w3.org/1999/xlink" viewBox="0 0 96 96" shape-rendering="geometricPrecision" text-rendering="geometricPrecision"><path d="M18.826529,46.946777c2.718542-5.928375,8.740804-4.423038,13.418317-5.912582c1.068219-.340172,2.279415-.337833,3.422127-.320129c6.903816.10696,9.575493-4.705616,12.122154-9.990227c1.486508-3.084664,3.646195-5.844921,6.188584-8.753926c1.629135,1.713131,2.766281,3.35281,3.478153,5.16001c1.776943,4.511055,4.727451,7.34736,9.745254,7.766416.679993.056786,1.307953.736607,1.999108,1.484204c2.36248,1.44445,4.613014,2.748958,7.028839,3.562702c2.652046.89331,5.456413,1.3344,8.277878,2.342667-3.275399,3.827072-6.404785,7.552253-10.051857,10.672321-4.451561,3.808315-4.216805,8.413868-2.928993,13.194431.305641,1.13459,2.26448,1.823837,3.462875,2.717926.739136-1.139114,2.343475-2.561058,2.078415-3.371887-1.862053-5.696194,2.046531-8.504868,5.27832-11.832409c3.308983-3.407028,6.384026-7.041279,9.56147-10.576069c4.443176,5.069554,4.349495,8.119484-.42556,12.944763-2.448486,2.474228-4.706138,5.202698-7.437263,7.315773-3.666039,2.836411-3.327751,6.422295-2.789612,10.214623.568107,4.003532.987831,8.038811,1.789184,11.996063c1.217575,6.012596-4.96347,9.31868-10.444229,6.606918-1.73471-.858299-3.529312-1.595573-5.025696-2.7751c7.011315-.625267,11.264199-3.836678,11.278481-9.248123.004074-1.54316-1.625618-3.09063-2.506134-4.636124-1.114182,1.149872-2.917145,2.144905-3.216812,3.47789-1.005295,4.471733-3.425972,4.775078-6.90828,3.018928-4.284385-2.160636-8.390098-4.813934-12.878078-6.380302-2.666931-.930794-6.172215-.924744-8.855129-.019585-4.650463,1.56897-8.955162,4.162796-13.434635,5.909844.070245-1.0494.2138-1.678436.263496-2.314797.472256-6.047348,4.925629-12.849868-3.299286-17.632999-1.790651-3.280159-3.477783-6.230995-5.293989-9.100128-1.203331-1.900948-2.591616-3.684811-3.897102-5.521092Z" fill="#fddf82"/><path d="M31.083174,81.932755c4.449709-2.16401,8.754408-4.757836,13.404871-6.326806c2.682914-.905159,6.188198-.911209,8.855129.019585c4.48798,1.566368,8.593693,4.219666,12.878078,6.380302c3.482308,1.75615,5.902985,1.452805,6.90828-3.018928.299667-1.332985,2.10263-2.328018,3.216812-3.47789.880516,1.545494,2.510208,3.092964,2.506134,4.636124-.014282,5.411445-4.267166,8.622856-11.419174,8.914619-3.544834-1.292908-6.678169-2.639168-10.193596-4.383316-5.14275-4.460243-9.916145-5.13562-15.357868-1.315903-3.318924,2.329651-7.233498,3.810715-10.880533,5.672928-7.054089,1.816193-13.802838-3.844322-12.841942-10.791931.656408-4.746071,1.601053-9.469879,1.918182-14.236809.131208-1.97229-.519581-4.440403-1.7213-5.971439-3.163159-4.029991-7.202425-7.395184-10.197562-11.528862C3.600488,40.21352,6.54034,32.857933,14.015722,31.03863c3.040007-.739855,6.174233-1.431881,9.26977-1.450507c1.392818-.008381,2.795891,1.687319,4.194309,2.609806-.944349,1.276009-1.630564,3.065834-2.896459,3.701817-1.695181.851658-3.938164.544491-5.763329,1.224796-1.887863.703682-3.557239,1.993538-5.322189,3.026985.863301,1.473519,1.647289,3.002289,2.620521,4.399224.557719.800522,1.422865,1.386867,2.428894,2.232834c1.584776,1.999473,2.973061,3.783336,4.176392,5.684284c1.816206,2.869133,3.503338,5.819969,5.217073,9.5037-.766845,5.317013-1.476135,9.871418-2.25192,14.414455-.848851,4.970932.31052,6.1875,5.39439,5.546731Z" fill="#f5f5f8"/><path d="M91.930847,42.681656c-3.201118,3.943359-6.276161,7.57761-9.585144,10.984638-3.231789,3.327541-7.140373,6.136215-5.27832,11.832409.26506.810829-1.339279,2.232773-2.078415,3.371887-1.198395-.894089-3.157234-1.583336-3.462875-2.717926-1.287812-4.780563-1.522568-9.386116,2.928993-13.194431c3.647072-3.120068,6.776458-6.845249,10.190864-10.952717-1.26239-2.062786-2.372596-4.337727-3.939727-4.715069-3.733529-.898983-7.682908-.901516-11.545098-1.266159-.652054-.391342-1.280014-1.071163-1.960007-1.127949-5.017803-.419056-7.968311-3.255361-9.745254-7.766416-.711872-1.8072-1.849018-3.446879-3.128647-5.292238-1.704388-2.427697-3.072712-4.725966-5.292015-8.453557-2.556129,4.151141-4.341988,6.809708-5.871799,9.608241-1.351132,2.471653-2.09842,5.334724-3.742756,7.558887-.822201,1.112118-3.052048,1.183556-4.645218,1.725691-.47831-1.584663-1.779049-3.506046-1.292065-4.695501c2.069798-5.05546,4.284401-10.134266,7.167454-14.754422c4.143509-6.640066,12.417026-6.454541,16.84647.117913c1.662712,2.467153,3.523899,5.086002,4.168361,7.894159c1.317028,5.738791,5.0085,7.699183,10.272622,8.137335c2.968528.247082,5.918884.710821,8.878166,1.070984c7.335609.89279,10.722976,4.609117,11.11441,12.634241Z" fill="#f4f4f8"/><path d="M31.101784,89.380066c3.546558-2.208809,7.461132-3.689873,10.780056-6.019524c5.441723-3.819717,10.215118-3.14434,14.995266,1.266976-4.677246,2.582123-9.385464,4.791542-14.06736,7.055374-4.351834,2.10424-8.362896,2.40496-11.707962-2.302826Z" fill="#fbdc81"/></svg>
